<svg width="124" height="32" viewBox="0 0 124 32" fill="none" xmlns="http://www.w3.org/2000/svg">
<path d="M80.1699 5.08789L78.5234 4.8418C78.6562 4.04492 78.9648 3.43555 79.4492 3.01367C79.9375 2.58789 80.5469 2.375 81.2773 2.375C82.0781 2.375 82.707 2.5918 83.1641 3.02539C83.6211 3.45898 83.8496 4.00977 83.8496 4.67773C83.8496 5.01758 83.7793 5.35938 83.6387 5.70312C83.498 6.04297 83.2676 6.40039 82.9473 6.77539C82.7168 7.04102 82.3398 7.41797 81.8164 7.90625C81.293 8.39062 80.9453 8.72266 80.7734 8.90234C80.6055 9.07812 80.4434 9.26562 80.2871 9.46484H83.2637L82.9473 11H77.7266C77.7812 10.5781 77.9043 10.1777 78.0957 9.79883C78.291 9.41602 78.5332 9.06055 78.8223 8.73242C79.1113 8.4043 79.6406 7.875 80.4102 7.14453C80.9883 6.58984 81.3535 6.22852 81.5059 6.06055C81.7793 5.75586 81.9668 5.49219 82.0684 5.26953C82.1699 5.04688 82.2207 4.8457 82.2207 4.66602C82.2207 4.37695 82.1348 4.14258 81.9629 3.96289C81.7949 3.7832 81.5801 3.69336 81.3184 3.69336C81.0527 3.69336 80.8203 3.79492 80.6211 3.99805C80.4219 4.19727 80.2715 4.56055 80.1699 5.08789ZM84.5469 9.37695H86.2109L85.8711 11H84.207L84.5469 9.37695ZM87.793 8.20508C87.793 7.3418 87.9395 6.4668 88.2324 5.58008C88.5918 4.49805 89.0527 3.69336 89.6152 3.16602C90.1777 2.63867 90.8027 2.375 91.4902 2.375C92.1855 2.375 92.7559 2.62695 93.2012 3.13086C93.6504 3.63477 93.875 4.36719 93.875 5.32812C93.875 6.20703 93.7109 7.13672 93.3828 8.11719C93.0586 9.09375 92.6191 9.84375 92.0645 10.3672C91.5098 10.8867 90.8848 11.1465 90.1895 11.1465C89.4941 11.1465 88.9199 10.8945 88.4668 10.3906C88.0176 9.88672 87.793 9.1582 87.793 8.20508ZM89.4453 8.54492C89.4453 9.00586 89.5195 9.33008 89.668 9.51758C89.8164 9.70508 90.0078 9.79883 90.2422 9.79883C90.5547 9.79883 90.832 9.6543 91.0742 9.36523C91.3984 8.97852 91.6855 8.2168 91.9355 7.08008C92.1348 6.17773 92.2344 5.46289 92.2344 4.93555C92.2344 4.50586 92.1582 4.19727 92.0059 4.00977C91.8574 3.81836 91.666 3.72266 91.4316 3.72266C91.1348 3.72266 90.8711 3.86523 90.6406 4.15039C90.3008 4.56445 90.0078 5.29297 89.7617 6.33594C89.5508 7.23828 89.4453 7.97461 89.4453 8.54492ZM97.5195 11L99.3184 2.41016H102.254C102.891 2.41016 103.336 2.42969 103.59 2.46875C104.012 2.52734 104.369 2.64453 104.662 2.82031C104.955 2.99609 105.178 3.23047 105.33 3.52344C105.482 3.81641 105.559 4.14062 105.559 4.49609C105.559 4.97266 105.426 5.38672 105.16 5.73828C104.895 6.08594 104.484 6.34961 103.93 6.5293C104.371 6.65039 104.715 6.86719 104.961 7.17969C105.211 7.48828 105.336 7.83789 105.336 8.22852C105.336 8.74414 105.189 9.23438 104.896 9.69922C104.604 10.1602 104.199 10.4922 103.684 10.6953C103.168 10.8984 102.463 11 101.568 11H97.5195ZM100.355 5.87891H101.703C102.309 5.87891 102.744 5.83594 103.01 5.75C103.275 5.66406 103.475 5.52344 103.607 5.32812C103.74 5.13281 103.807 4.92383 103.807 4.70117C103.807 4.48242 103.744 4.30273 103.619 4.16211C103.494 4.02148 103.316 3.92773 103.086 3.88086C102.957 3.85742 102.646 3.8457 102.154 3.8457H100.783L100.355 5.87891ZM99.5762 9.61719H101.281C101.996 9.61719 102.475 9.57227 102.717 9.48242C102.963 9.38867 103.158 9.23633 103.303 9.02539C103.451 8.81445 103.525 8.5918 103.525 8.35742C103.525 8.07227 103.42 7.83789 103.209 7.6543C102.998 7.4668 102.646 7.37305 102.154 7.37305H100.045L99.5762 9.61719ZM112.25 8.41016H108.031C108.027 8.47656 108.025 8.52734 108.025 8.5625C108.025 8.97656 108.143 9.31055 108.377 9.56445C108.615 9.81836 108.904 9.94531 109.244 9.94531C109.803 9.94531 110.238 9.65625 110.551 9.07812L112.057 9.33008C111.764 9.93555 111.371 10.3906 110.879 10.6953C110.391 10.9961 109.842 11.1465 109.232 11.1465C108.396 11.1465 107.717 10.8828 107.193 10.3555C106.67 9.82422 106.408 9.12305 106.408 8.25195C106.408 7.40039 106.645 6.64258 107.117 5.97852C107.762 5.08008 108.682 4.63086 109.877 4.63086C110.639 4.63086 111.244 4.86719 111.693 5.33984C112.143 5.80859 112.367 6.4668 112.367 7.31445C112.367 7.7207 112.328 8.08594 112.25 8.41016ZM110.832 7.38477C110.836 7.31055 110.838 7.25391 110.838 7.21484C110.838 6.75391 110.734 6.4082 110.527 6.17773C110.32 5.94727 110.043 5.83203 109.695 5.83203C109.348 5.83203 109.035 5.96289 108.758 6.22461C108.484 6.48633 108.299 6.87305 108.201 7.38477H110.832ZM113.293 6.02539L113.551 4.77734H114.371L114.576 3.78125L116.504 2.62109L116.053 4.77734H117.078L116.82 6.02539H115.789L115.244 8.63281C115.146 9.10547 115.098 9.375 115.098 9.44141C115.098 9.57031 115.139 9.67188 115.221 9.74609C115.303 9.81641 115.451 9.85156 115.666 9.85156C115.74 9.85156 115.926 9.83789 116.223 9.81055L115.959 11.0586C115.67 11.1172 115.373 11.1465 115.068 11.1465C114.475 11.1465 114.043 11.0332 113.773 10.8066C113.504 10.5762 113.369 10.2578 113.369 9.85156C113.369 9.66016 113.441 9.21875 113.586 8.52734L114.107 6.02539H113.293ZM119.24 6.54102L117.6 6.40039C117.787 5.8457 118.113 5.41211 118.578 5.09961C119.047 4.78711 119.666 4.63086 120.436 4.63086C121.236 4.63086 121.828 4.79297 122.211 5.11719C122.594 5.4375 122.785 5.83008 122.785 6.29492C122.785 6.48242 122.768 6.68164 122.732 6.89258C122.701 7.10352 122.586 7.6582 122.387 8.55664C122.223 9.29883 122.141 9.81836 122.141 10.1152C122.141 10.3809 122.188 10.6758 122.281 11H120.646C120.58 10.7734 120.539 10.5391 120.523 10.2969C120.277 10.5703 119.994 10.7812 119.674 10.9297C119.354 11.0742 119.031 11.1465 118.707 11.1465C118.191 11.1465 117.766 10.9785 117.43 10.6426C117.094 10.3027 116.926 9.86719 116.926 9.33594C116.926 8.74219 117.109 8.26758 117.477 7.91211C117.848 7.55664 118.508 7.3418 119.457 7.26758C120.258 7.20117 120.793 7.12109 121.062 7.02734C121.133 6.79297 121.168 6.60547 121.168 6.46484C121.168 6.28516 121.096 6.13477 120.951 6.01367C120.807 5.89258 120.592 5.83203 120.307 5.83203C120.006 5.83203 119.768 5.89453 119.592 6.01953C119.42 6.14062 119.303 6.31445 119.24 6.54102ZM120.84 8.09961C120.738 8.12695 120.604 8.15234 120.436 8.17578C119.592 8.27734 119.041 8.42578 118.783 8.62109C118.6 8.76172 118.508 8.95117 118.508 9.18945C118.508 9.38477 118.578 9.55078 118.719 9.6875C118.859 9.82031 119.045 9.88672 119.275 9.88672C119.529 9.88672 119.768 9.82617 119.99 9.70508C120.217 9.58008 120.385 9.42188 120.494 9.23047C120.607 9.03516 120.707 8.73242 120.793 8.32227L120.84 8.09961Z" fill="#74A2C5"/>
<path d="M11.6353 8.91455V12.7201H8.556V27.9276H3.37359V12.7201H0.307617V8.91455H11.6353Z" fill="#00457A"/>
<path d="M24.5997 8.91455V21.6199C24.5997 23.0609 24.5513 24.0729 24.4526 24.6558C24.354 25.2404 24.0631 25.8381 23.5783 26.4538C23.0935 27.0679 22.4566 27.5346 21.6642 27.8506C20.8717 28.1683 19.9389 28.3271 18.8623 28.3271C17.672 28.3271 16.6222 28.1388 15.7111 27.7638C14.8 27.3888 14.1196 26.8976 13.6665 26.295C13.2152 25.6924 12.9477 25.057 12.8658 24.3873C12.7839 23.7175 12.7421 22.3109 12.7421 20.1658V8.91619H17.9261V23.1723C17.9261 24.0025 17.9729 24.533 18.0682 24.7639C18.1635 24.9948 18.3541 25.1111 18.6416 25.1111C18.9693 25.1111 19.1816 24.9833 19.2752 24.7295C19.3689 24.4757 19.4173 23.8747 19.4173 22.9266V8.91455H24.5997Z" fill="#00457A"/>
<path d="M26.6075 8.91455H30.277C32.7228 8.91455 34.3795 9.00461 35.2454 9.18474C36.1114 9.36486 36.8169 9.825 37.3635 10.5651C37.9102 11.3053 38.1827 12.4843 38.1827 14.1054C38.1827 15.5857 37.9888 16.5797 37.6043 17.0873C37.2181 17.5966 36.4591 17.9011 35.3274 18.0027C36.3538 18.245 37.0426 18.5692 37.3953 18.977C37.748 19.3847 37.967 19.7581 38.054 20.0987C38.1392 20.4393 38.1827 21.3759 38.1827 22.9103V27.9243H33.3681V21.6068C33.3681 20.5883 33.2845 19.9595 33.1156 19.7155C32.9468 19.4731 32.5055 19.352 31.7916 19.352V27.9243H26.6075V8.91455ZM31.79 12.1683V16.3963C32.3734 16.3963 32.7813 16.3193 33.0153 16.167C33.2494 16.0147 33.3664 15.5186 33.3664 14.6818V13.6371C33.3664 13.0345 33.2527 12.6382 33.027 12.4515C32.803 12.2616 32.3901 12.1683 31.79 12.1683Z" fill="#00457A"/>
<path d="M45.3711 8.91455V27.9259H40.187V8.91455H45.3711Z" fill="#00457A"/>
<path d="M59.0242 8.91455V27.9259H54.4821L51.7855 19.2832V27.9259H47.4524V8.91455H51.7855L54.691 17.4754V8.91455H59.0242Z" fill="#00457A"/>
<path d="M73.0001 15.9131H67.8177V14.1872C67.8177 13.0999 67.7692 12.4187 67.6706 12.1436C67.5719 11.8701 67.3379 11.7326 66.9684 11.7326C66.6491 11.7326 66.4301 11.8505 66.3165 12.0846C66.2011 12.3188 66.1443 12.923 66.1443 13.8924V23.0166C66.1443 23.8697 66.2028 24.4314 66.3165 24.7016C66.4318 24.9718 66.6608 25.1077 67.0069 25.1077C67.383 25.1077 67.6405 24.9554 67.7759 24.6492C67.9113 24.343 67.9782 23.7485 67.9782 22.8643V20.6095H66.9317V17.7209H73.0018V27.9258H69.7435L69.2654 26.5634C68.9127 27.1513 68.4663 27.5917 67.928 27.8849C67.3897 28.178 66.7545 28.3253 66.0239 28.3253C65.1529 28.3253 64.3371 28.1239 63.5782 27.7195C62.8175 27.3167 62.2408 26.8172 61.8462 26.2228C61.4517 25.6284 61.2043 25.0029 61.1073 24.3495C61.0087 23.6961 60.9602 22.7153 60.9602 21.4086V15.7608C60.9602 13.9448 61.0622 12.625 61.2678 11.803C61.4734 10.981 62.0619 10.2277 63.0348 9.54324C64.0061 8.85877 65.2649 8.51489 66.808 8.51489C68.3259 8.51489 69.5864 8.81292 70.5878 9.40733C71.5891 10.0017 72.2428 10.7091 72.5454 11.5263C72.8496 12.345 73.0018 13.5322 73.0018 15.0894V15.9131H73.0001Z" fill="#00457A"/>
<path d="M34.6569 4.79614H39.7105L42.5776 8.02201H37.5239L34.6569 4.79614Z" fill="#F2B121"/>
<path d="M50.9246 4.79614H45.8709L43.0039 8.02201H48.0576L50.9246 4.79614Z" fill="#F2B121"/>
<path d="M39.7106 0V4.34265L42.5776 7.47846V2.87054L39.7106 0Z" fill="#F2B121"/>
<path d="M45.8709 0V4.34265L43.0039 7.47846V2.87054L45.8709 0Z" fill="#F2B121"/>
<path d="M5.07541 30.356H0V32H5.07541V30.356Z" fill="#00457A"/>
<path d="M11.6252 30.356H6.65344V32H11.6252V30.356Z" fill="#00457A"/>
<path d="M31.7965 30.356H26.4586V32H31.7965V30.356Z" fill="#00457A"/>
<path d="M38.5069 30.356H33.4833V32H38.5069V30.356Z" fill="#00457A"/>
<path d="M51.6552 30.356H47.1649V32H51.6552V30.356Z" fill="#00457A"/>
<path d="M59.5742 30.356H54.9335V32H59.5742V30.356Z" fill="#00457A"/>
<path d="M68.1586 30.356H61.1606V32H68.1586V30.356Z" fill="#00457A"/>
<path d="M72.8128 30.356H69.8354V32H72.8128V30.356Z" fill="#00457A"/>
<path d="M42.1714 30.356H40.0667V32H42.1714V30.356Z" fill="#00457A"/>
<path d="M45.4581 30.356H43.7997V32H45.4581V30.356Z" fill="#00457A"/>
<path d="M18.2253 30.356H14.8851V32H18.2253V30.356Z" fill="#00457A"/>
<path d="M23.1938 30.356H19.8536V32H23.1938V30.356Z" fill="#00457A"/>
</svg>
