<svg width="40" height="40" viewBox="0 0 40 40" fill="none" xmlns="http://www.w3.org/2000/svg">
<path d="M18.7379 1.0267C19.473 0.428673 20.527 0.428674 21.2621 1.0267L23.705 3.01396C24.1471 3.37361 24.7217 3.52756 25.2844 3.43715L28.3936 2.93759C29.3293 2.78725 30.242 3.31421 30.5797 4.19969L31.7017 7.14216C31.9047 7.67469 32.3253 8.09529 32.8578 8.29835L35.8003 9.42034C36.6858 9.75797 37.2127 10.6707 37.0624 11.6064L36.5628 14.7156C36.4724 15.2783 36.6264 15.8529 36.986 16.295L38.9733 18.7379C39.5713 19.473 39.5713 20.527 38.9733 21.2621L36.986 23.705C36.6264 24.1471 36.4724 24.7217 36.5628 25.2844L37.0624 28.3936C37.2127 29.3293 36.6858 30.242 35.8003 30.5797L32.8578 31.7017C32.3253 31.9047 31.9047 32.3253 31.7017 32.8578L30.5797 35.8003C30.242 36.6858 29.3293 37.2127 28.3936 37.0624L25.2844 36.5628C24.7217 36.4724 24.1471 36.6264 23.705 36.986L21.2621 38.9733C20.527 39.5713 19.473 39.5713 18.7379 38.9733L16.295 36.986C15.8529 36.6264 15.2783 36.4724 14.7156 36.5628L11.6064 37.0624C10.6707 37.2127 9.75797 36.6858 9.42034 35.8003L8.29835 32.8578C8.09529 32.3253 7.67469 31.9047 7.14216 31.7017L4.19969 30.5797C3.31421 30.242 2.78725 29.3293 2.93759 28.3936L3.43715 25.2844C3.52756 24.7217 3.37361 24.1471 3.01396 23.705L1.0267 21.2621C0.428673 20.527 0.428674 19.473 1.0267 18.7379L3.01396 16.295C3.37361 15.8529 3.52756 15.2783 3.43715 14.7156L2.93759 11.6064C2.78725 10.6707 3.31422 9.75797 4.19969 9.42034L7.14216 8.29835C7.67469 8.09529 8.09529 7.67469 8.29835 7.14216L9.42034 4.19969C9.75798 3.31421 10.6707 2.78725 11.6064 2.93759L14.7156 3.43715C15.2783 3.52756 15.8529 3.37361 16.295 3.01396L18.7379 1.0267Z" fill="#F62A2A"/>
</svg>
