<svg width="32" height="32" viewBox="0 0 32 32" fill="none" xmlns="http://www.w3.org/2000/svg">
<circle cx="16" cy="16" r="16" fill="#E84D3D"/>
<path fill-rule="evenodd" clip-rule="evenodd" d="M18.0843 9.67209C18.0879 9.25819 18.5694 9.06643 18.7854 9.02656C25.0892 8.60485 24.0161 13.2846 23.7874 14.2817L23.7874 14.2817C23.77 14.3575 23.7575 14.412 23.7535 14.4414C23.6327 14.7993 23.3654 15.2692 22.9316 15.1562C22.4538 15.0224 22.5279 14.3835 22.624 13.9658C23.2881 10.3296 19.8439 10.3645 18.8442 10.3746H18.8442H18.8442C18.7981 10.3751 18.7572 10.3755 18.7222 10.3755C18.5071 10.3546 18.0806 10.085 18.0843 9.67209ZM19.3547 14.9578C18.9776 15.573 19.7748 15.3945 19.7748 15.3945C19.7748 15.3945 22.4511 14.7547 21.523 18.0915C20.8274 20.3128 16.7434 23.7484 11.1355 21.6723C8.83816 20.7059 7.35266 18.4911 8.27984 15.928C9.92459 11.7045 15.7311 9.38822 15.6533 12.6368C15.625 13.232 15.625 13.569 16.4853 13.0934C18.9831 11.7814 19.9469 13.756 19.3547 14.9578ZM9.1402 18.2035C9.38916 20.0727 11.7423 21.2821 14.3966 20.9043C17.051 20.5245 19.0023 18.7019 18.7543 16.8317C18.5053 14.9616 16.1522 13.7522 13.4978 14.131C10.8435 14.5097 8.89216 16.3334 9.1402 18.2035ZM21.0406 14.4149C21.3079 14.4842 21.4113 14.2573 21.4406 14.0494L21.4431 14.0311C21.4874 13.7144 21.8616 11.0371 18.9684 11.3543C18.7442 11.3799 18.5932 11.5185 18.6197 11.7226C18.6444 11.9267 18.8101 12.0416 18.9364 12.0255L18.9564 12.0227C19.1988 11.9881 21.035 11.7263 20.8786 13.8121C20.887 13.8686 20.882 13.9367 20.8769 14.0065V14.0065C20.8642 14.1806 20.8506 14.3661 21.0406 14.4149ZM11.4074 18.0022C11.1968 16.862 12.1478 15.7153 13.5317 15.44C14.9165 15.1656 16.2089 15.8662 16.4203 17.0054C16.6299 18.1446 15.6799 19.2913 14.296 19.5666C12.9112 19.8419 11.6179 19.1423 11.4074 18.0022ZM12.502 17.7525C12.502 18.1749 12.8901 18.5157 13.3679 18.5157C13.8457 18.5157 14.2328 18.174 14.2328 17.7525C14.2328 17.331 13.8457 16.9893 13.3679 16.9893C12.8901 16.9893 12.502 17.331 12.502 17.7525ZM14.4259 16.9874C14.4259 17.2617 14.6072 17.4848 14.7857 17.4848C14.9632 17.4848 15.1454 17.2627 15.1463 16.9874C15.1463 16.713 14.9641 16.4909 14.7857 16.4909C14.6072 16.4909 14.4259 16.713 14.4259 16.9874Z" fill="white"/>
</svg>
