<svg width="32" height="32" viewBox="0 0 32 32" fill="none" xmlns="http://www.w3.org/2000/svg">
<circle cx="16" cy="16" r="16" fill="#DC4F48"/>
<path fill-rule="evenodd" clip-rule="evenodd" d="M17.0279 15.6184C17.1388 15.6184 17.2506 15.6184 17.3222 15.5866L17.3465 15.5854C17.8111 15.3984 18.2606 15.1644 18.7117 14.9295C19.0052 14.7768 19.2992 14.6237 19.5985 14.483V14.4436C19.5761 14.4365 19.5474 14.4276 19.5138 14.4171C19.1769 14.3121 18.3404 14.0516 18.2974 13.8645C18.3752 13.7843 18.478 13.613 18.5896 13.4272C18.7747 13.1187 18.984 12.7701 19.1435 12.7304C19.4247 12.8752 19.7263 12.9743 20.0382 13.0238C20.4881 13.2613 20.9686 13.4378 21.4671 13.547C21.6614 13.4239 21.871 13.3261 22.0895 13.2537L23.6463 12.4599C23.7138 12.4252 23.8022 12.395 23.895 12.3634C24.0971 12.2945 24.3203 12.2184 24.3965 12.0713C24.4157 11.9989 24.4157 11.9215 24.3965 11.8491V11.8097C24.1193 11.9024 23.7905 11.8895 23.4579 11.8764C23.1665 11.8649 22.8722 11.8533 22.6072 11.9126C22.4163 11.9697 22.1818 11.9757 21.9558 11.9814C21.8048 11.9853 21.6576 11.989 21.5297 12.0078H20.883C20.2912 12.1005 19.6918 12.1323 19.0936 12.1031C18.9549 12.3247 18.8004 12.5484 18.6468 12.7709L18.6468 12.7709L18.6468 12.7709C18.5091 12.9705 18.372 13.169 18.2475 13.3642C18.2192 13.4098 18.1962 13.4614 18.1731 13.5131C18.1121 13.65 18.0508 13.7877 17.8884 13.8163C17.5459 13.6372 17.1842 13.4962 16.811 13.3959C16.7556 13.3762 16.6964 13.3631 16.6383 13.3502C16.4874 13.3168 16.3437 13.285 16.292 13.1419C16.5579 12.8282 16.7777 12.4777 16.9464 12.1031C17.1383 11.7974 17.3412 11.4931 17.5448 11.1878C17.8064 10.7955 18.0692 10.4014 18.3114 10L19.8349 10.7455C20.4318 10.8026 21.0338 10.7823 21.6243 10.682C22.1961 10.6469 22.7493 10.6164 23.2934 10.5864L23.2935 10.5864L23.2936 10.5864C24.3452 10.5284 25.3631 10.4723 26.4159 10.3886C26.4888 11.143 26.4888 11.9037 26.4159 12.6581L23.2219 14.2455C23.5926 14.4297 23.9837 14.5681 24.3876 14.6583C24.7595 14.8284 25.1404 14.9796 25.5289 15.1104L26.5028 15.0316C26.5629 15.4596 26.5629 15.8952 26.5028 16.3245V16.3638L25.0739 16.4591C24.6969 16.3283 24.3262 16.1772 23.9645 16.007C23.699 15.8966 23.4402 15.8202 23.1808 15.7436C22.957 15.6775 22.7328 15.6114 22.5036 15.5231C22.1355 15.3275 21.7393 15.1866 21.3303 15.1028C20.8689 15.3898 20.3794 15.6285 19.8695 15.8165C19.7501 15.8766 19.6315 15.937 19.513 15.9974C19.0678 16.2242 18.6234 16.4506 18.144 16.6572C18.0073 16.7398 17.8667 16.8134 17.721 16.8795L16.356 16.943C16.2857 16.5162 16.2729 16.0806 16.3163 15.6501C16.4569 15.6323 16.5988 15.6323 16.7394 15.6501C16.8071 15.6184 16.917 15.6184 17.0279 15.6184ZM15.1494 18.0072C14.9667 18.0453 14.7788 18.0593 14.5909 18.0466L14.6778 17.9488C14.5439 18.0285 14.2967 18.0165 14.0477 18.0043C13.8524 17.9948 13.656 17.9853 13.5122 18.0199C12.877 18.1151 12.2366 18.1571 11.595 18.1469C11.2652 18.6566 10.854 19.1504 10.4457 19.6406C10.142 20.0054 9.83989 20.3681 9.57433 20.7338C9.39923 21.0107 8.96723 21.6622 8.72823 21.8044C8.59228 21.8853 8.33974 21.8717 8.08559 21.858C7.89292 21.8477 7.69933 21.8373 7.55493 21.8679C7.50237 21.8679 7.43679 21.8637 7.3647 21.859H7.36468H7.36467H7.36466C7.1966 21.8482 6.99315 21.835 6.83663 21.8679C6.25638 21.967 5.66717 22.0102 5.07924 21.9949V20.7021C5.21983 20.6843 5.3617 20.6843 5.50229 20.7021C5.63512 20.6078 6.13978 20.5973 6.59473 20.5878H6.59474C6.90591 20.5813 7.19381 20.5753 7.32359 20.5433C7.38653 20.3666 7.52495 20.2205 7.65781 20.0802C7.72732 20.0068 7.7953 19.9351 7.85017 19.8614C7.98714 19.6661 8.13327 19.4751 8.27875 19.2851L8.27877 19.2851C8.4048 19.1204 8.53033 18.9564 8.64899 18.7908C8.74612 18.6231 8.86754 18.472 9.00813 18.3387H8.35374C8.19911 18.4249 7.98954 18.4102 7.77134 18.395C7.60719 18.3835 7.43816 18.3716 7.28397 18.4022C6.52733 18.5101 5.76303 18.552 5 18.5292V17.2363L10.7668 16.9112C10.8358 16.3207 10.8358 15.7238 10.7668 15.1332V11.2535C10.9521 11.2319 11.14 11.2319 11.3253 11.2535C11.4061 11.2219 11.5479 11.2327 11.6855 11.2433C11.7526 11.2484 11.8187 11.2535 11.8762 11.2535L12.7543 11.19C12.8233 11.7805 12.8233 12.3774 12.7543 12.9679V16.8249L15.1494 16.6979C15.2082 17.1322 15.2082 17.5729 15.1494 18.0072ZM7.88204 13.9356C7.71333 13.9877 7.53184 13.9877 7.36313 13.9356V13.9039C6.9797 13.4924 6.63333 13.0492 6.32531 12.5793C6.26924 12.5071 6.19948 12.4386 6.1284 12.3689C5.99693 12.2399 5.86095 12.1065 5.79873 11.9367H6.41989L8.01752 11.8414C8.17926 12.1107 8.38666 12.3514 8.59768 12.5962C8.77183 12.7983 8.94845 13.0033 9.1039 13.2295C9.15073 13.2905 9.21185 13.3455 9.27402 13.4014L9.27403 13.4014C9.4138 13.5271 9.55891 13.6576 9.55891 13.8721L7.88204 13.9356ZM8.0827 16.4591C7.86798 16.4934 7.6507 16.4934 7.43598 16.4591L7.41297 16.3956C7.23798 16.3323 7.11369 16.1323 7.00348 15.9549C6.96316 15.89 6.92473 15.8281 6.88639 15.7771C6.74107 15.5565 6.5534 15.3485 6.36301 15.1376C6.15655 14.9088 5.94691 14.6764 5.78467 14.4208C5.88053 14.4068 5.97638 14.4068 6.07224 14.4208C6.16296 14.3833 6.31097 14.396 6.45643 14.4085C6.52822 14.4147 6.59938 14.4208 6.66273 14.4208C7.11134 14.3344 7.57146 14.3103 8.02774 14.3496C8.0743 14.4835 8.17494 14.584 8.27267 14.6816C8.32518 14.734 8.37685 14.7856 8.41884 14.8411C8.57577 15.0576 8.73321 15.2649 8.89282 15.475L8.89283 15.475L8.89284 15.4751L8.89291 15.4751L8.89296 15.4752C8.98419 15.5953 9.07613 15.7164 9.16909 15.8406C9.21048 15.8979 9.2631 15.9496 9.3166 16.0022C9.41837 16.1023 9.52333 16.2055 9.56019 16.3562L8.0827 16.4591ZM26.5055 18.0465V16.7765C25.7682 16.7765 25.1057 16.8272 24.4505 16.8773L24.4505 16.8773C23.7858 16.9282 23.1287 16.9785 22.4092 16.9746V16.3562C21.9848 16.3358 21.5592 16.3574 21.14 16.4197C21.0416 16.4428 20.9177 16.4295 20.7993 16.4168C20.6777 16.4038 20.562 16.3914 20.4856 16.4197H20.4217C20.4549 16.6356 20.4549 16.8553 20.4217 17.0699L16.3573 17.2921V18.585C16.8149 18.5989 17.2725 18.5659 17.7223 18.4897C17.9418 18.4425 18.1702 18.4462 18.3903 18.4497H18.3903C18.5791 18.4526 18.7618 18.4555 18.9276 18.4262C19.077 18.3998 19.2667 18.4105 19.4551 18.4212C19.7194 18.4362 19.9811 18.451 20.1252 18.3627C20.2338 18.3488 20.3437 18.3488 20.4524 18.3627V20.2753C20.4153 20.5763 20.4153 20.8798 20.4524 21.1795C20.9636 21.1325 21.7701 21.0843 22.3772 21.0525V19.1095C22.3772 18.8313 22.4117 18.5545 22.4807 18.284C23.435 18.284 24.3736 18.2137 25.3021 18.1441C25.6942 18.1147 26.0845 18.0855 26.4735 18.0617L26.5055 18.0465ZM13.8484 18.458L11.668 18.5608C11.7638 18.8974 11.9185 19.2136 12.123 19.4968C12.208 19.6623 12.2935 19.8265 12.3788 19.9903L12.3789 19.9904C12.6614 20.533 12.9414 21.0707 13.1927 21.6316L14.5578 21.5681C14.8262 21.5999 15.0971 21.5783 15.3566 21.5046C15.4112 21.3593 15.2106 21.0706 15.0699 20.868C15.0262 20.805 14.9882 20.7504 14.9655 20.7109C14.8129 20.4166 14.6686 20.1199 14.5253 19.8251L14.5253 19.8251L14.5253 19.8251C14.3013 19.3644 14.0796 18.9084 13.8318 18.4732L13.8484 18.458ZM25.3309 18.458H25.4587L25.5392 18.4263C26.0671 19.2111 26.554 20.0214 27.0001 20.8545H26.5451C26.016 20.9345 25.4817 20.9688 24.9475 20.9573C24.7746 20.6421 24.5795 20.342 24.3858 20.044C24.2674 19.8618 24.1495 19.6804 24.0375 19.4969C23.8981 19.1857 23.7218 18.8924 23.5109 18.6244C23.9467 18.5177 24.3953 18.4745 24.8439 18.4974C24.9124 18.4797 24.9985 18.4828 25.0812 18.4858C25.1822 18.4895 25.2782 18.4929 25.3309 18.458ZM19.2935 18.8166C19.4016 18.823 19.506 18.8292 19.5743 18.7844V18.7831H19.582C19.613 18.8103 19.629 18.8185 19.6372 18.8317C19.6459 18.8455 19.6459 18.8649 19.6459 18.9178C19.5142 19.1197 19.4056 19.3356 19.3187 19.5604C19.216 19.7518 19.111 19.9455 19.0053 20.1404C18.7822 20.5519 18.5564 20.9683 18.3448 21.3777L16.3484 21.4729C16.3522 21.4412 16.3522 21.4094 16.3484 21.3777C16.4566 21.2809 16.5151 21.1337 16.573 20.9882C16.6047 20.9085 16.6362 20.8293 16.6756 20.7592C16.8903 20.3236 17.1229 19.9185 17.3619 19.5299C17.3969 19.4711 17.4164 19.4004 17.4365 19.3276C17.4758 19.1851 17.5173 19.0348 17.6814 18.9508C17.822 18.8788 18.1216 18.8729 18.4246 18.867C18.656 18.8624 18.8894 18.8579 19.0554 18.8238C19.1276 18.8068 19.2116 18.8118 19.2935 18.8166Z" fill="white"/>
</svg>
