<svg width="32" height="32" viewBox="0 0 32 32" fill="none" xmlns="http://www.w3.org/2000/svg">
<circle cx="16" cy="16" r="16" fill="#EA7B99"/>
<path d="M12.1375 8.23814L14.7314 10.8618H17.2686L19.8625 8.23814C20.1754 7.9216 20.6823 7.9216 20.9943 8.23814C21.3073 8.55469 21.3073 9.06737 20.9943 9.38295L19.5313 10.8608H21.1997C22.7463 10.8608 24 12.1289 24 13.6932V20.1669C24 21.7312 22.7463 22.9993 21.1997 22.9993H10.8003C9.25373 23.0002 8 21.7321 8 20.1678V13.6942C8 12.1299 9.25373 10.8618 10.8003 10.8618H12.4687L11.0057 9.38198C10.6927 9.06543 10.6927 8.55275 11.0057 8.23717C11.3187 7.9216 11.8246 7.9216 12.1375 8.23814ZM21.1997 12.4804H10.8003C10.182 12.4804 9.66557 12.9553 9.60605 13.5777L9.60029 13.6942V20.1678C9.60029 20.7932 10.0697 21.3156 10.6851 21.3758L10.8003 21.3816H21.1997C21.818 21.3816 22.3344 20.9068 22.394 20.2844L22.3997 20.1678V13.6942C22.3997 13.0242 21.8621 12.4804 21.1997 12.4804ZM12.7999 14.9079C13.2415 14.9079 13.5996 15.2701 13.5996 15.7168V17.3354C13.5996 17.7821 13.2415 18.1443 12.7999 18.1443C12.3583 18.1443 12.0002 17.7821 12.0002 17.3354V15.7178C12.0002 15.2701 12.3583 14.9079 12.7999 14.9079ZM19.2001 14.9079C19.6417 14.9079 19.9998 15.2701 19.9998 15.7168V17.3354C19.9998 17.7821 19.6407 18.1443 19.1991 18.1443C18.7575 18.1443 18.4004 17.7821 18.3995 17.3354V15.7178C18.3995 15.2701 18.7575 14.9079 19.2001 14.9079Z" fill="white"/>
</svg>
