<svg width="32" height="32" viewBox="0 0 32 32" fill="none" xmlns="http://www.w3.org/2000/svg">
<circle cx="16" cy="16" r="16" fill="#3485F7"/>
<path d="M17.1765 10.8123V21.4256H18.2165L18.5944 22.757L20.4249 21.4256H22.999V10.8123H17.1765ZM21.8184 20.2198H20.6083L19.064 21.4101L18.7279 20.2198H18.4101V11.9944H21.8184V20.2198ZM16.5725 16.8176C16.5725 16.8176 16.5725 15.6828 16.0194 15.6211C15.4642 15.5583 13.7417 15.6211 13.7417 15.6211V12.0891H16.2964C16.2964 12.0891 16.2669 10.9225 15.7728 10.9225H11.6169L12.2627 9C12.2627 9 11.2165 9.06281 10.8458 9.72389C10.478 10.3881 9.27605 13.7902 9.27605 13.7902C9.27605 13.7902 9.67637 13.9797 10.3548 13.4741C11.0311 12.9696 11.2481 12.0861 11.2481 12.0861L12.4796 12.0232L12.5092 15.6169C12.5092 15.6169 10.3843 15.585 9.95445 15.6169C9.52357 15.6509 9.27808 16.8155 9.27808 16.8155H12.5112C12.5112 16.8155 12.2352 18.8008 11.4029 20.2507C10.5697 21.7026 9 22.8373 9 22.8373C9 22.8373 10.1378 23.3099 11.2461 22.6478C12.3543 21.9857 13.1723 19.0737 13.1723 19.0737L15.7728 22.3317C15.7728 22.3317 16.0092 20.781 15.7311 20.3423C15.453 19.9036 13.9322 18.1439 13.9322 18.1439L13.2701 18.7432L13.7417 16.8166H16.5725V16.8176Z" fill="white"/>
</svg>
