<svg width="22" height="22" viewBox="0 0 22 22" fill="none" xmlns="http://www.w3.org/2000/svg">
<path d="M18.5625 10.3125C18.1844 10.3125 17.875 10.6219 17.875 11C17.875 14.7916 14.7916 17.875 11 17.875C7.20844 17.875 4.125 14.7916 4.125 11C4.125 7.20844 7.20844 4.125 11 4.125C11.3781 4.125 11.6875 3.81562 11.6875 3.4375C11.6875 3.05937 11.3781 2.75 11 2.75C6.44531 2.75 2.75 6.44531 2.75 11C2.75 15.5547 6.44531 19.25 11 19.25C15.5547 19.25 19.25 15.5547 19.25 11C19.25 10.6219 18.9406 10.3125 18.5625 10.3125Z" fill="#288DDA"/>
<path d="M19.236 3.30344C19.2326 3.28281 19.2257 3.26562 19.2188 3.245C19.2119 3.22094 19.2051 3.19688 19.1982 3.17625C19.1879 3.15219 19.1741 3.13156 19.1638 3.11094C19.1535 3.09375 19.1466 3.07656 19.1363 3.05937C19.0847 2.98375 19.0194 2.91844 18.9472 2.87031C18.9301 2.86 18.9129 2.85313 18.8957 2.84281C18.8751 2.82906 18.851 2.81875 18.8269 2.80844C18.8029 2.79813 18.7822 2.79469 18.7582 2.78781C18.7376 2.78094 18.7204 2.77406 18.6997 2.77062C18.6516 2.75344 18.6069 2.75 18.5622 2.75H15.8122C15.4341 2.75 15.1247 3.05937 15.1247 3.4375C15.1247 3.81562 15.4341 4.125 15.8122 4.125H16.9019L10.5151 10.5153C10.2469 10.7834 10.2469 11.22 10.5151 11.4881C10.6491 11.6187 10.8244 11.6875 10.9997 11.6875C11.1751 11.6875 11.3504 11.6187 11.4844 11.4847L17.8747 5.09781V6.1875C17.8747 6.56562 18.1841 6.875 18.5622 6.875C18.9404 6.875 19.2497 6.56562 19.2497 6.1875V3.4375C19.2497 3.39281 19.2463 3.34812 19.236 3.30344Z" fill="#288DDA"/>
</svg>
