<svg width="20" height="20" viewBox="0 0 20 20" fill="none" xmlns="http://www.w3.org/2000/svg">
<g clip-path="url(#clip0)">
<path d="M10.875 10L16.0625 4.8125C16.3125 4.5625 16.3125 4.1875 16.0625 3.9375C15.8125 3.6875 15.4375 3.6875 15.1875 3.9375L9.99999 9.125L4.8125 3.9375C4.5625 3.6875 4.1875 3.6875 3.9375 3.9375C3.6875 4.1875 3.6875 4.5625 3.9375 4.8125L9.12499 10L3.9375 15.1875C3.6875 15.4375 3.6875 15.8125 3.9375 16.0625C4.0625 16.1875 4.21875 16.25 4.375 16.25C4.53125 16.25 4.6875 16.1875 4.8125 16.0625L9.99999 10.875L15.1875 16.0625C15.3125 16.1875 15.4687 16.25 15.625 16.25C15.7812 16.25 15.9375 16.1875 16.0625 16.0625C16.3125 15.8125 16.3125 15.4375 16.0625 15.1875L10.875 10Z" fill="#A1ADC5"/>
</g>
<defs>
<clipPath id="clip0">
<rect width="12.5" height="12.5" fill="white" transform="translate(3.75 3.75)"/>
</clipPath>
</defs>
</svg>
