<svg width="24" height="24" viewBox="0 0 24 24" fill="none" xmlns="http://www.w3.org/2000/svg">
<path d="M16.305 19.7438L9.2625 12L16.305 4.25625C16.425 4.12125 16.5 3.945 16.5 3.75C16.5 3.3375 16.1625 3 15.75 3C15.5288 3 15.3338 3.0975 15.1988 3.2475L7.69875 11.4975H7.7025C7.575 11.6287 7.5 11.805 7.5 12C7.5 12.195 7.575 12.3713 7.69875 12.5025H7.695L15.195 20.7525H15.1988C15.3338 20.9025 15.5288 21 15.75 21C16.1625 21 16.5 20.6625 16.5 20.25C16.5 20.055 16.425 19.8787 16.305 19.7438Z" fill="white"/>
</svg>
