<svg width="24" height="24" viewBox="0 0 24 24" fill="none" xmlns="http://www.w3.org/2000/svg">
<g clip-path="url(#clip0)">
<path d="M13.05 12L19.275 5.775C19.575 5.475 19.575 5.025 19.275 4.725C18.975 4.425 18.525 4.425 18.225 4.725L12 10.95L5.775 4.725C5.475 4.425 5.025 4.425 4.725 4.725C4.425 5.025 4.425 5.475 4.725 5.775L10.95 12L4.725 18.225C4.425 18.525 4.425 18.975 4.725 19.275C4.875 19.425 5.0625 19.5 5.25 19.5C5.4375 19.5 5.625 19.425 5.775 19.275L12 13.05L18.225 19.275C18.375 19.425 18.5625 19.5 18.75 19.5C18.9375 19.5 19.125 19.425 19.275 19.275C19.575 18.975 19.575 18.525 19.275 18.225L13.05 12Z" fill="#152844"/>
</g>
<defs>
<clipPath id="clip0">
<rect width="15" height="15" fill="white" transform="translate(4.5 4.5)"/>
</clipPath>
</defs>
</svg>
