<svg width="24" height="24" viewBox="0 0 24 24" fill="none" xmlns="http://www.w3.org/2000/svg">
<path d="M20.7787 19.7213L18.2287 17.1713C19.4887 15.6713 20.25 13.7362 20.25 11.625C20.25 6.8625 16.3875 3 11.625 3C6.8625 3 3 6.8625 3 11.625C3 16.3875 6.8625 20.25 11.625 20.25C13.7362 20.25 15.6712 19.4888 17.1712 18.2288L19.7212 20.7787C19.8675 20.925 20.0587 21 20.25 21C20.4412 21 20.6325 20.925 20.7787 20.7787C21.075 20.4862 21.075 20.0138 20.7787 19.7213ZM4.5 11.625C4.5 7.695 7.695 4.5 11.625 4.5C15.555 4.5 18.75 7.695 18.75 11.625C18.75 15.555 15.555 18.75 11.625 18.75C7.695 18.75 4.5 15.555 4.5 11.625Z" fill="#152844"/>
</svg>
