<svg width="16" height="12" viewBox="0 0 16 12" fill="none" xmlns="http://www.w3.org/2000/svg">
<path d="M0.878905 6.47696C1.66783 6.47208 2.45907 6.47452 3.2503 6.47452C4.02539 6.47452 4.80047 6.46964 5.57556 6.47696H0.878905ZM2.33681 1.48897C2.3345 0.934747 1.89621 0.480627 1.37256 0.490393C0.835076 0.500159 0.435998 0.937189 0.438305 1.51094C0.440612 2.08225 0.848917 2.50708 1.39332 2.49975C1.93081 2.49731 2.33911 2.05784 2.33681 1.48897ZM10.1892 8.07615C10.955 8.07615 11.7117 8.0908 12.4706 8.07127C12.8535 8.0615 13.1396 7.71481 13.158 7.30952C13.1765 6.92376 12.8951 6.50382 12.5306 6.48917C11.7624 6.45987 10.9896 6.47941 10.1892 6.47941C10.1892 7.02142 10.1892 7.51461 10.1892 8.07615ZM5.57556 6.47696C4.80047 6.46964 4.02539 6.47452 3.2503 6.47452C2.45907 6.47452 1.67014 6.46964 0.878905 6.47696H5.57556ZM0.878905 6.47696C0.318351 6.48185 -0.00229444 6.77971 1.23617e-05 7.28022C0.00231917 7.7612 0.313738 8.06883 0.844303 8.07127C2.42446 8.07859 4.00463 8.07859 5.58479 8.07127C6.11535 8.06883 6.44061 7.7612 6.44753 7.28999C6.45445 6.79192 6.12919 6.47941 5.57325 6.47452L0.878905 6.47696ZM0.959643 10.2296C2.05999 11.5724 3.46022 12.1461 5.13957 11.9679C7.2849 11.7409 9.02193 10.0587 9.26414 7.93943C9.54096 5.52722 8.33219 3.48124 6.17994 2.72193C5.34949 2.42895 5.34949 2.42895 5.34719 1.51827C5.34719 1.29365 5.35641 1.06659 5.34488 0.84197C5.3172 0.336578 5.01501 0.00697488 4.58133 -0.000349641C4.15688 -0.00767416 3.85238 0.275541 3.81085 0.773608C3.77625 1.17401 3.77164 1.5793 3.79471 1.97971C3.81547 2.35814 3.7232 2.53637 3.33335 2.63892C2.35065 2.89772 1.52481 3.46171 0.888132 4.30891C0.627463 4.6556 0.645918 5.09507 0.9112 5.35387C1.20878 5.64441 1.60555 5.61511 1.92389 5.27574C2.0623 5.12681 2.18917 4.96567 2.3345 4.82407C3.95618 3.23953 6.82354 3.81328 7.66783 5.90565C8.14765 7.09711 8.03461 8.25438 7.25722 9.26028C6.38756 10.3834 5.21339 10.7105 3.8939 10.4737C3.09805 10.3321 2.48675 9.84624 1.93773 9.23098C1.77856 9.05275 1.45791 8.93556 1.22954 8.96486C1.0473 8.98683 0.786633 9.25296 0.754338 9.44584C0.715122 9.69243 0.805087 10.0391 0.959643 10.2296ZM8.71281 11.2355C9.75318 11.8995 10.8374 12.1022 12.0139 11.9533C14.7336 11.609 16.5652 8.8086 15.8455 6.01552C15.3749 4.18927 14.2099 3.08327 12.5029 2.62671C12.113 2.52173 11.9769 2.36059 12.0139 1.95041C12.0461 1.59884 12.0254 1.24238 12.0185 0.888358C12.0046 0.33902 11.7186 0.00697488 11.2572 -0.000349641C10.7982 -0.00767416 10.5029 0.324371 10.4914 0.871268C10.4844 1.25703 10.4706 1.64523 10.496 2.02854C10.519 2.38012 10.3968 2.52661 10.0692 2.62427C9.60093 2.76343 9.15803 2.99294 8.68052 3.19314C8.99655 3.64238 9.24799 4.00128 9.52481 4.39436C11.2249 3.43729 13.0196 4.03546 13.9077 5.14634C14.7543 6.20596 14.8628 7.83444 14.1223 9.01125C13.7232 9.64604 13.1696 10.088 12.4844 10.3321C11.4579 10.6983 10.4614 10.5982 9.5225 10.0684C9.23877 10.4762 8.98271 10.8473 8.71281 11.2355ZM15.3103 1.51338C15.3149 0.93963 14.9112 0.497718 14.3806 0.490393C13.8524 0.483068 13.421 0.929864 13.4164 1.48897C13.4118 2.06028 13.8178 2.49731 14.3553 2.50464C14.9043 2.50952 15.3057 2.08958 15.3103 1.51338ZM8.91351 1.51094C8.92043 0.961604 8.48905 0.492835 7.97002 0.490393C7.42331 0.487951 7.02654 0.905449 7.01962 1.49141C7.0127 2.07493 7.40486 2.50219 7.94926 2.50219C8.49597 2.50219 8.90428 2.08225 8.91351 1.51094Z" fill="white"/>
</svg>
