<svg width="16" height="12" viewBox="0 0 16 12" fill="none" xmlns="http://www.w3.org/2000/svg">
<path d="M5.11961 0H3.42831V7.2414C3.46061 7.8234 3.40027 8.4066 3.24912 8.97C3.16928 9.3072 2.96023 9.6012 2.66646 9.7914C2.33003 10.0494 1.93997 10.2312 1.52369 10.3242L0 10.5V12H0.140789L2.31967 11.715C2.90233 11.5518 3.44964 11.2848 3.93479 10.9278C4.72711 10.2414 5.14216 9.1992 5.14216 7.8114L5.11961 0ZM15.9988 6C16.0146 5.1048 15.8598 4.2138 15.5417 3.375C15.2698 2.6598 14.8316 2.0178 14.2618 1.5C13.119 0.5136 11.4503 0 9.27137 0H6.77251V12H9.25248C11.4314 12 13.0885 11.4786 14.2429 10.47C14.8353 9.9678 15.2833 9.3216 15.5417 8.595C15.8598 7.7664 16.0146 6.8856 15.9988 6ZM13.1458 2.5836C13.5621 2.9622 13.865 3.4464 14.0222 3.9822C14.252 4.6302 14.3642 5.313 14.3538 5.9994C14.366 6.6702 14.2538 7.3374 14.0222 7.968C13.8735 8.5098 13.5694 8.9982 13.1458 9.3744C12.323 10.1472 11.0773 10.4994 9.45117 10.4994H8.38031V1.455H9.45421C11.0809 1.455 12.3261 1.83 13.1489 2.6022L13.1458 2.5836Z" fill="white"/>
</svg>
