<svg width="18" height="18" viewBox="0 0 18 18" fill="none" xmlns="http://www.w3.org/2000/svg">
<path d="M14.0625 5.62451H13.1344C12.7406 3.71201 11.025 2.24951 9 2.24951C6.975 2.24951 5.25938 3.71201 4.86563 5.62451H3.9375C3.00938 5.62451 2.25 6.38389 2.25 7.31201V14.062C2.25 14.9901 3.00938 15.7495 3.9375 15.7495H14.0625C14.9906 15.7495 15.75 14.9901 15.75 14.062V7.31201C15.75 6.38389 14.9906 5.62451 14.0625 5.62451ZM9 3.09326C10.575 3.09326 11.8969 4.16201 12.2625 5.62451H5.7375C6.10312 4.16201 7.425 3.09326 9 3.09326ZM14.9062 14.062C14.9062 14.512 14.5406 14.9058 14.0625 14.9058H3.9375C3.45938 14.9058 3.09375 14.512 3.09375 14.062V7.31201C3.09375 6.83389 3.45938 6.46826 3.9375 6.46826H4.78125H5.625H12.375H13.2188H14.0625C14.5406 6.46826 14.9062 6.83389 14.9062 7.31201V14.062Z" fill="#787878"/>
<path d="M9 8.99951C8.775 8.99951 8.57812 9.19639 8.57812 9.42139V11.9526C8.57812 12.1776 8.775 12.3745 9 12.3745C9.225 12.3745 9.42188 12.1776 9.42188 11.9526V9.42139C9.42188 9.19639 9.225 8.99951 9 8.99951Z" fill="#787878"/>
</svg>
