<svg width="32" height="32" viewBox="0 0 32 32" fill="none" xmlns="http://www.w3.org/2000/svg">
<path d="M11.3 20.7C11.5 20.9 11.75 21 12 21C12.25 21 12.5 20.9 12.7 20.7L20.7 12.7C21.1 12.3 21.1 11.7 20.7 11.3C20.3 10.9 19.7 10.9 19.3 11.3L11.3 19.3C10.9 19.7 10.9 20.3 11.3 20.7Z" fill="#4684E2"/>
<path d="M12.5 14C13.3284 14 14 13.3284 14 12.5C14 11.6716 13.3284 11 12.5 11C11.6716 11 11 11.6716 11 12.5C11 13.3284 11.6716 14 12.5 14Z" fill="#4684E2"/>
<path d="M19.5 21C20.3284 21 21 20.3284 21 19.5C21 18.6716 20.3284 18 19.5 18C18.6716 18 18 18.6716 18 19.5C18 20.3284 18.6716 21 19.5 21Z" fill="#4684E2"/>
<path d="M16 26C10.5 26 6 21.5 6 16C6 10.5 10.5 6 16 6C21.5 6 26 10.5 26 16C26 16.55 26.45 17 27 17C27.55 17 28 16.55 28 16C28 9.35 22.65 4 16 4C9.35 4 4 9.35 4 16C4 22.65 9.35 28 16 28C16.55 28 17 27.55 17 27C17 26.45 16.55 26 16 26Z" fill="#152844"/>
<path d="M27 23.5H25.5V22C25.5 21.45 25.05 21 24.5 21C23.95 21 23.5 21.45 23.5 22V23.5H22C21.45 23.5 21 23.95 21 24.5C21 25.05 21.45 25.5 22 25.5H23.5V27C23.5 27.55 23.95 28 24.5 28C25.05 28 25.5 27.55 25.5 27V25.5H27C27.55 25.5 28 25.05 28 24.5C28 23.95 27.55 23.5 27 23.5Z" fill="#4684E2"/>
</svg>
